<?xml version="1.0" standalone="no"?>
<!DOCTYPE svg PUBLIC "-//W3C//DTD SVG 20010904//EN"
 "http://www.w3.org/TR/2001/REC-SVG-20010904/DTD/svg10.dtd">
<svg version="1.0" xmlns="http://www.w3.org/2000/svg"
 width="1080.000000pt" height="1080.000000pt" viewBox="0 0 1080.000000 1080.000000"
 preserveAspectRatio="xMidYMid meet">
<metadata>
Created by potrace 1.14, written by Peter Selinger 2001-2017
</metadata>
<g transform="translate(0.000000,1080.000000) scale(0.100000,-0.100000)"
fill="#000000" stroke="none">
<path d="M5129 10796 c-2 -2 -58 -7 -124 -10 -66 -4 -154 -12 -195 -17 -41 -5
-97 -12 -125 -15 -43 -4 -126 -18 -320 -54 -316 -59 -828 -215 -1081 -331 -27
-12 -84 -37 -127 -55 -157 -68 -422 -211 -632 -343 -100 -62 -312 -207 -350
-238 -5 -5 -50 -39 -100 -78 -317 -244 -688 -617 -942 -947 -387 -501 -674
-1042 -868 -1636 -25 -78 -48 -150 -50 -160 -2 -9 -15 -58 -30 -108 -47 -170
-114 -492 -130 -633 -3 -25 -10 -75 -15 -111 -5 -36 -12 -96 -15 -135 -3 -38
-10 -110 -14 -160 -9 -93 -7 -716 2 -770 3 -16 8 -66 11 -110 4 -44 8 -89 10
-100 2 -11 7 -47 10 -80 22 -192 94 -543 160 -775 217 -765 573 -1427 1105
-2055 80 -94 409 -429 496 -505 22 -19 71 -62 109 -95 462 -402 1151 -791
1751 -990 264 -87 592 -171 780 -199 22 -4 78 -13 125 -21 47 -7 108 -17 135
-20 28 -4 66 -9 85 -12 167 -22 360 -30 660 -28 184 2 351 5 370 8 19 3 67 8
106 11 39 4 80 8 90 10 11 2 44 7 74 11 113 14 358 57 494 87 281 61 712 198
921 292 17 8 57 26 90 41 733 330 1384 814 1890 1405 49 58 92 107 95 110 3 3
37 46 75 95 38 50 72 92 75 95 19 18 245 357 312 470 145 244 323 609 392 805
10 28 24 64 31 80 70 162 207 666 250 920 3 17 11 68 20 115 8 47 17 112 21
145 3 33 8 62 9 65 2 3 6 50 10 105 4 55 9 111 12 125 3 14 6 167 8 340 2 281
-9 550 -29 678 -3 20 -8 60 -12 87 -5 47 -18 129 -29 192 -3 16 -8 46 -11 68
-3 22 -14 76 -24 120 -9 44 -21 97 -24 118 -14 76 -106 396 -160 552 -222 650
-569 1253 -1020 1775 -157 181 -381 408 -531 536 -44 38 -82 71 -85 75 -8 11
-353 271 -416 314 -320 218 -719 432 -1054 562 -476 186 -1052 326 -1477 358
-43 4 -96 9 -118 11 -46 6 -671 15 -676 10z"/>
</g>
</svg>
